HIERARCHY
ROOT Hips
{
	OFFSET 0.00000 0.00000 0.00000
	CHANNELS 6 Xposition Yposition Zposition Zrotation Yrotation Xrotation 
	JOINT LHipJoint
	{
		OFFSET 0 0 0
		CHANNELS 3 Zrotation Yrotation Xrotation
		JOINT LeftUpLeg
		{
			OFFSET 2.10660 -1.59283 1.11709
			CHANNELS 3 Zrotation Yrotation Xrotation
			JOINT LeftLeg
			{
				OFFSET 2.03633 -5.59477 0.00000
				CHANNELS 3 Zrotation Yrotation Xrotation
				JOINT LeftFoot
				{
					OFFSET 2.74354 -7.53782 0.00000
					CHANNELS 3 Zrotation Yrotation Xrotation
					JOINT LeftToeBase
					{
						OFFSET 0.09177 -0.25215 1.99109
						CHANNELS 3 Zrotation Yrotation Xrotation
						End Site
						{
							OFFSET 0.00000 -0.00000 1.01710
						}
					}
				}
			}
		}
	}
	JOINT RHipJoint
	{
		OFFSET 0 0 0
		CHANNELS 3 Zrotation Yrotation Xrotation
		JOINT RightUpLeg
		{
			OFFSET -1.86456 -1.59283 1.11709
			CHANNELS 3 Zrotation Yrotation Xrotation
			JOINT RightLeg
			{
				OFFSET -2.09328 -5.75123 0.00000
				CHANNELS 3 Zrotation Yrotation Xrotation
				JOINT RightFoot
				{
					OFFSET -2.65375 -7.29113 0.00000
					CHANNELS 3 Zrotation Yrotation Xrotation
					JOINT RightToeBase
					{
						OFFSET -0.08891 -0.24428 1.95541
						CHANNELS 3 Zrotation Yrotation Xrotation
						End Site
						{
							OFFSET -0.00000 -0.00000 0.99928
						}
					}
				}
			}
		}
	}
	JOINT LowerBack
	{
		OFFSET 0 0 0
		CHANNELS 3 Zrotation Yrotation Xrotation
		JOINT Spine
		{
			OFFSET -0.11002 1.82513 -0.30878
			CHANNELS 3 Zrotation Yrotation Xrotation
			JOINT Spine1
			{
				OFFSET 0.02136 1.89008 0.15052
				CHANNELS 3 Zrotation Yrotation Xrotation
				JOINT Neck
				{
					OFFSET 0 0 0
					CHANNELS 3 Zrotation Yrotation Xrotation
					JOINT Neck1
					{
						OFFSET -0.02611 1.82648 0.12298
						CHANNELS 3 Zrotation Yrotation Xrotation
						JOINT Head
						{
							OFFSET 0.06033 1.80858 -0.32888
							CHANNELS 3 Zrotation Yrotation Xrotation
							End Site
							{
								OFFSET 0.01403 1.85203 -0.12607
							}
						}
					}
				}
				JOINT LeftShoulder
				{
					OFFSET 0 0 0
					CHANNELS 3 Zrotation Yrotation Xrotation
					JOINT LeftArm
					{
						OFFSET 3.64598 0.79256 -0.42249
						CHANNELS 3 Zrotation Yrotation Xrotation
						JOINT LeftForeArm
						{
							OFFSET 4.92383 -0.00000 0.00000
							CHANNELS 3 Zrotation Yrotation Xrotation
							JOINT LeftHand
							{
								OFFSET 2.65826 -0.00000 0.00000
								CHANNELS 3 Zrotation Yrotation Xrotation
								JOINT LeftFingerBase
								{
									OFFSET 0 0 0
									CHANNELS 3 Zrotation Yrotation Xrotation
									JOINT LeftHandIndex1
									{
										OFFSET 0.73343 -0.00000 0.00000
										CHANNELS 3 Zrotation Yrotation Xrotation
										End Site
										{
											OFFSET 0.59131 -0.00000 0.00000
										}
									}
								}
								JOINT LThumb
								{
									OFFSET 0 0 0
									CHANNELS 3 Zrotation Yrotation Xrotation
									End Site
									{
										OFFSET 0.60034 -0.00000 0.60034
									}
								}
							}
						}
					}
				}
				JOINT RightShoulder
				{
					OFFSET 0 0 0
					CHANNELS 3 Zrotation Yrotation Xrotation
					JOINT RightArm
					{
						OFFSET -3.83899 0.50520 -0.46242
						CHANNELS 3 Zrotation Yrotation Xrotation
						JOINT RightForeArm
						{
							OFFSET -4.63604 -0.00000 0.00000
							CHANNELS 3 Zrotation Yrotation Xrotation
							JOINT RightHand
							{
								OFFSET -2.86243 -0.00000 -0.00000
								CHANNELS 3 Zrotation Yrotation Xrotation
								JOINT RightFingerBase
								{
									OFFSET 0 0 0
									CHANNELS 3 Zrotation Yrotation Xrotation
									JOINT RightHandIndex1
									{
										OFFSET -0.75891 -0.00000 0.00000
										CHANNELS 3 Zrotation Yrotation Xrotation
										End Site
										{
											OFFSET -0.61185 -0.00000 0.00000
										}
									}
								}
								JOINT RThumb
								{
									OFFSET 0 0 0
									CHANNELS 3 Zrotation Yrotation Xrotation
									End Site
									{
										OFFSET -0.62119 -0.00000 0.62119
									}
								}
							}
						}
					}
				}
			}
		}
	}
}
MOTION
Frames: 5
Frame Time: .0083333
-0.664700 15.883700 9.205300 -0.982600 -0.382900 0.771900 0.000000 0.000000 0.000000 -14.455900 -28.189700 -24.864500 2.444100 9.735500 28.124500 -0.163600 9.241200 -9.617100 3.250000 11.089100 32.581000 0.000000 0.000000 0.000000 26.658700 1.019300 28.096600 0.000000 -0.000000 0.000000 -0.184400 -2.118300 -9.178400 -1.587100 7.947200 -22.553800 -4.048400 1.409100 12.040900 1.685900 1.400400 -4.756000 3.826500 1.065100 -12.157900 -3.851500 -6.019700 -10.152800 3.676600 -8.407400 19.614700 1.001000 -3.940300 8.059700 -0.000000 -0.000000 0.000000 -89.870100 10.198600 18.967800 11.447200 -18.970400 -1.918800 -0.000000 -0.000000 0.921300 4.469000 19.571400 1.499700 -7.125000 0.000000 -0.000000 -22.932000 48.191200 -1.898800 -0.000000 -0.000000 0.000000 84.757400 -0.934500 25.055900 -16.834900 26.639600 -4.013000 0.000000 0.000000 0.484100 -10.226400 17.032800 -3.024900 7.125000 -0.000000 -0.000000 11.680100 -12.947900 8.958300
-0.630900 15.865300 9.361900 -0.567100 -0.115800 0.737500 0.000000 0.000000 0.000000 -15.428300 -27.229400 -24.886200 2.527100 9.887000 28.611500 -0.148400 8.647900 -8.835700 3.441500 11.377600 33.564100 0.000000 0.000000 0.000000 26.453900 1.160500 25.966600 -0.069400 -1.699100 4.674900 -0.239700 -1.614000 -9.983800 -1.863200 8.575100 -24.474900 -4.384700 1.356300 12.045000 1.548000 1.255400 -4.823200 3.898500 1.018900 -12.229700 -3.898300 -6.039000 -9.994900 3.684400 -8.436000 19.680500 1.012300 -3.958600 8.056800 -0.000000 0.000000 0.000000 -89.813800 10.110200 18.871300 11.290400 -18.731900 -1.868100 -0.000000 -0.000000 1.169900 4.416500 19.806900 1.499200 -7.125000 0.000000 -0.000000 -23.089100 48.400400 -2.037700 -0.000000 0.000000 0.000000 84.964400 -1.613300 24.217500 -16.386200 26.041500 -3.813900 0.000000 0.000000 1.052200 -8.657200 14.844200 -2.233800 7.125000 -0.000000 -0.000000 12.770600 -15.218200 9.205500
-0.592700 15.856400 9.522700 -0.038500 0.089400 0.669900 0.000000 0.000000 0.000000 -16.514300 -26.421100 -24.831500 2.616400 10.046600 29.127700 -0.148500 8.301400 -8.085600 3.426500 11.355300 33.487900 0.000000 0.000000 0.000000 26.086000 1.546300 23.382600 -0.328600 -3.684400 10.190400 -0.310200 -0.918100 -10.894300 -2.004800 8.876100 -25.408600 -4.787000 1.289700 11.998400 1.400300 1.082100 -4.826600 4.003600 0.960300 -12.195500 -4.066100 -6.105800 -9.784500 3.832000 -8.528100 19.502600 1.086300 -4.006500 7.978000 -0.000000 -0.000000 0.000000 -89.823900 9.919300 18.604000 11.083100 -18.415600 -1.802100 -0.000000 -0.000000 1.390500 4.503700 19.693200 1.520500 -7.125000 0.000000 -0.000000 -22.957100 48.308100 -1.970300 -0.000000 -0.000000 0.000000 85.107200 -2.214400 23.575600 -15.948700 25.451000 -3.623900 0.000000 0.000000 1.494600 -7.706600 13.208800 -1.771100 7.125000 -0.000000 -0.000000 13.479700 -16.876800 9.247200
-0.555100 15.848600 9.681500 0.296200 0.172300 0.624500 0.000000 0.000000 0.000000 -17.329800 -25.593500 -24.776600 2.709800 10.209700 29.658500 -0.138500 7.817600 -7.348400 3.534700 11.514100 34.033900 0.000000 0.000000 0.000000 25.517000 1.350100 21.453000 -0.624900 -5.058500 14.075500 -0.320100 0.044300 -10.672200 -1.931600 8.722200 -24.930200 -4.993500 1.273400 11.957900 1.275500 1.012500 -4.848600 3.998900 0.937500 -12.191600 -4.004700 -6.114200 -9.774400 3.842900 -8.549000 19.409800 1.079100 -4.012500 7.943800 -0.000000 0.000000 0.000000 -89.749400 9.699600 18.450900 10.826100 -18.021200 -1.721700 -0.000000 -0.000000 1.558200 4.719500 19.276600 1.561200 -7.125000 0.000000 -0.000000 -22.571100 47.954300 -1.728100 -0.000000 0.000000 0.000000 85.363100 -2.901900 22.846900 -15.643600 25.035000 -3.493800 0.000000 0.000000 1.758000 -8.335700 13.183800 -1.914000 7.125000 -0.000000 -0.000000 13.053600 -16.869300 8.940800
-0.518000 15.841400 9.837900 0.575100 0.308400 0.625600 0.000000 0.000000 0.000000 -18.088400 -24.666000 -24.764400 2.796700 10.358500 30.145500 -0.119200 7.139600 -6.544300 3.773800 11.853200 35.214600 0.000000 0.000000 0.000000 24.877600 0.914900 19.502100 -0.980100 -6.301900 17.663100 -0.286800 0.736700 -9.882700 -2.258700 9.385400 -27.008600 -5.129000 1.273700 11.913400 1.154300 0.978100 -4.865800 3.949800 0.925800 -12.181700 -3.982300 -6.081200 -10.025100 3.859400 -8.509600 19.549000 1.075500 -3.984300 8.033400 0.000000 -0.000000 0.000000 -89.605000 9.371700 18.550500 10.567300 -17.622000 -1.642500 -0.000000 -0.000000 1.776500 4.850100 19.185300 1.597300 -7.125000 0.000000 -0.000000 -22.412200 47.888000 -1.676500 0.000000 -0.000000 0.000000 85.664200 -3.571400 21.838900 -15.267600 24.517600 -3.336200 0.000000 0.000000 1.891400 -9.752000 15.612300 -2.648300 7.125000 -0.000000 -0.000000 12.017700 -14.389000 8.854800
